<svg xmlns="http://www.w3.org/2000/svg" viewBox="0 0 512 512" width="512" height="512">
  <defs>
    <linearGradient id="bg-grad" x1="0%" y1="0%" x2="100%" y2="100%">
      <stop offset="0%" stop-color="#f43f5e" />
      <stop offset="50%" stop-color="#ec4899" />
      <stop offset="100%" stop-color="#f59e0b" />
    </linearGradient>
    <filter id="shadow" x="-10%" y="-10%" width="120%" height="120%">
      <feDropShadow dx="0" dy="8" stdDeviation="12" flood-opacity="0.25" />
    </filter>
  </defs>
  <rect width="512" height="512" rx="128" fill="url(#bg-grad)" />
  <g filter="url(#shadow)" fill="#ffffff" transform="translate(106, 106) scale(0.6)">
    <!-- House Roof -->
    <path d="M250 40 L450 200 L410 200 L410 440 A20 20 0 0 1 390 460 L110 460 A20 20 0 0 1 90 440 L90 200 L50 200 Z" />
    <!-- Heart in Center -->
    <path fill="#f43f5e" d="M250 350 C250 350 170 290 170 230 C170 195 198 175 228 175 C242 175 250 185 250 185 C250 185 258 175 272 175 C302 175 330 195 330 230 C330 290 250 350 250 350 Z" />
    <!-- Sparkles -->
    <circle cx="360" cy="120" r="16" fill="#fef08a" />
    <circle cx="140" cy="140" r="12" fill="#fef08a" />
  </g>
</svg>
